#!OML:ASF F:\VICON\USERDATA\INSTALL\rory3\rory3.ASF
:FULLY-SPECIFIED
:DEGREES
44
root 0.2792517139734023 17.89273953470929 13.854713381922725 1.6754028699831855 -2.0794923554040983 -4.048414584564702
lfemur -27.74308606268985 -2.787510050975624 -18.076965177272598
ltibia 33.63606394247134
lfoot -0.14806290307750913 -4.260036500399575
ltoes -2.6846224104875303
rfemur -1.7183768259767813 1.7250412724021893 28.5978177085491
rtibia 45.27336494898446
rfoot 0.8155955086275348 2.58429252857176
rtoes -5.499396584949531
lowerback 11.101067098607675 2.4338840618212805 3.808276316116233
upperback -0.9359196593149133 3.98707049674069 1.1994548685690556
thorax -7.1395961863809525 1.8731269827909498 -1.8200012974936846
lowerneck -18.19386105193823 -2.8498754595502405 -2.5438435336697536
upperneck 18.963615271304608 -3.53055149597918 1.4115078274112758
head 9.00369490174382 -1.648622163318021 0.32728314534322744
lclavicle -2.25869623680679e-15 6.868289672256062e-16
lhumerus -54.014516224827716 3.296105807373702 87.1072987152857
lradius 53.437275419826555
lwrist 13.114712071987594
lhand -24.137866423888973 14.051499615814532
lfingers 7.125019999999999
lthumb 2.3149865457233694 44.19814977334337
rclavicle -2.2605054979386234e-15 6.855700078544689e-16
rhumerus -35.68284027655336 -2.601048768823924 -89.7448604053197
rradius 69.437949930345
rwrist -3.1360607691400215
rhand -17.205300373697664 31.492473427342546
rfingers 7.125019999999999
rthumb 8.540026433205192 2.0992328057113374
45
root 0.34361232445250317 18.061224149282037 14.727556670053584 0.7027748680602919 -1.1281236051246981 -2.6471958157784474
lfemur -24.001132203006534 -2.666844002649676 -20.8459467273619
ltibia 36.249110942000975
lfoot -0.08872312487289546 -5.1625199007701505
ltoes -3.593523026103214
rfemur -7.106885200011996 -0.7875619540071215 26.500555350625874
rtibia 54.949261346089344
rfoot 14.769884289660812 4.915173539562357
rtoes 7.729503786109742
lowerback 11.745907836211467 2.0441393994516717 2.47400760394264
upperback -0.951633779086495 3.341151422132333 0.7773130794018425
thorax -7.471613348358933 1.556625536531917 -1.3181739879414869
lowerneck -18.04471723240765 -2.882316936907812 -2.6553718823910555
upperneck 18.83683158113019 -3.5929682252524864 1.6139747299038483
head 8.944306486660764 -1.6448112559585042 0.40529617739630724
lclavicle -2.2590887471453187e-15 6.865529124050897e-16
lhumerus -53.149547058378175 2.84770679778945 87.23102485679132
lradius 54.7251489151937
lwrist 15.016163581417297
lhand -23.823673821336385 13.76669337788158
lfingers 7.125019999999999
lthumb 2.4633982839358786 43.69020056692021
rclavicle -2.2608873786488907e-15 6.853022154452962e-16
rhumerus -36.9452677697326 -3.8259144184304326 -89.00057877700307
rradius 68.4467709892466
rwrist -2.361331645315741
rhand -16.876049941296312 31.261592489063396
rfingers 7.125019999999999
rthumb 8.811403583013984 1.8823228518061947
46
root 0.40217933434457614 18.175523011758113 15.583685250654625 0.16785089019015464 -1.0886011792764188 -1.6473501358519895
lfemur -19.841136299344292 -2.5696463551626945 -22.6971484663483
ltibia 36.57027460804881
lfoot -1.3651652568135595 -4.352280823420241
ltoes -2.8254607679020793
rfemur -13.634413725397401 -2.110277853769386 25.18107757706414
rtibia 64.25058028059196
rfoot 25.54496973402359 2.9713143480851123
rtoes 23.356991967367136
lowerback 12.28522462517782 1.8380396759845352 1.2821626006128697
upperback -0.7656806621650318 2.8371384132517417 0.5254186456353385
thorax -7.614913344535122 1.356229807675084 -0.6545933554627335
lowerneck -18.06623283857049 -2.8388986591032017 -2.7845546097776235
upperneck 18.728112702367625 -3.5417271035927334 1.8055317020799015
head 8.879921813499005 -1.5975314805790686 0.4979321042190276
lclavicle -2.2606467062838762e-15 6.854570646797687e-16
lhumerus -51.179710151728656 1.0577855965476655 88.23360963386601
lradius 56.818539438898874
lwrist 17.796442086237995
lhand -24.34034651126914 13.222634824733811
lfingers 7.125019999999999
lthumb 1.7314787726108618 42.97577840360319
rclavicle -2.2623059619821876e-15 6.843076624614019e-16
rhumerus -37.719437948314514 -4.396370281959079 -88.51947303498328
rradius 67.61305619697622
rwrist -1.678240477170033
rhand -16.562635807785917 31.1440996715328
rfingers 7.125019999999999
rthumb 9.049746950885739 1.863461500587524
47
root 0.433388072370311 18.31414261571798 16.454048469918504 -0.2878266439105974 -0.80580172286035 -0.7382606344784961
lfemur -15.526434769796976 -2.9040682000518157 -24.3358767175509
ltibia 35.93398028028625
lfoot -1.7379492045005993 -3.776603134905746
ltoes -2.8102465456730314
rfemur -19.741929774398358 -3.0865843456138506 24.46410227190287
rtibia 70.8023993393227
rfoot 23.620837716543097 -2.870755216580487
rtoes 22.73498769758573
lowerback 12.569038286251821 1.4662317290402282 0.2304751464437509
upperback -0.4620968925367219 2.1171769979747754 0.40693792095616366
thorax -7.561597434090065 1.0297785275529883 0.11929812399407091
lowerneck -18.08547323853821 -2.7874431029128 -2.954196844385493
upperneck 18.695314137097412 -3.4538258500389674 1.9811024252544291
head 8.844952668346272 -1.5304768026724709 0.5871003299269952
lclavicle -2.262078239923314e-15 6.844538032872548e-16
lhumerus -48.30857193418947 -1.007976954618159 89.0979270471821
lradius 58.28570187008557
lwrist 17.981254261197286
lhand -24.883690412658 13.517052435628605
lfingers 7.125019999999999
lthumb 1.1994310007740716 43.262806660531176
rclavicle -2.2619054763892374e-15 6.845884578535614e-16
rhumerus -38.133042903128214 -4.730296047719587 -88.21216135613577
rradius 66.87954416037617
rwrist -1.2830377896705838
rhand -16.25056347255901 30.99577050853705
rfingers 7.125019999999999
rthumb 9.35958926397532 1.7358843665245598
